<svg width="600" height="360" viewBox="0 0 600 360" fill="none" xmlns="http://www.w3.org/2000/svg">
  <rect width="600" height="360" fill="#0d0d14"/>
  <!-- Window chrome -->
  <rect x="0" y="0" width="600" height="36" fill="#161622"/>
  <circle cx="20" cy="18" r="5" fill="#FF5F57"/>
  <circle cx="38" cy="18" r="5" fill="#FEBC2E"/>
  <circle cx="56" cy="18" r="5" fill="#28C840"/>
  <!-- URL bar -->
  <rect x="80" y="10" width="340" height="16" rx="8" fill="#0d0d14"/>
  <!-- Content -->
  <rect x="24" y="56" width="240" height="14" rx="3" fill="#1e1e30"/>
  <rect x="24" y="78" width="160" height="10" rx="3" fill="#1e1e30" opacity="0.6"/>
  <rect x="24" y="104" width="552" height="1" fill="#1e1e30"/>
  <!-- Cards -->
  <rect x="24" y="116" width="168" height="100" rx="8" fill="#1a1a2e"/>
  <rect x="36" y="130" width="80" height="8" rx="2" fill="#2a2a44"/>
  <rect x="36" y="146" width="120" height="6" rx="2" fill="#2a2a44" opacity="0.6"/>
  <rect x="36" y="160" width="100" height="6" rx="2" fill="#2a2a44" opacity="0.4"/>
  <rect x="36" y="180" width="60" height="20" rx="4" fill="#4f46e5" opacity="0.6"/>
  <rect x="204" y="116" width="168" height="100" rx="8" fill="#1a1a2e"/>
  <rect x="216" y="130" width="80" height="8" rx="2" fill="#2a2a44"/>
  <rect x="216" y="146" width="120" height="6" rx="2" fill="#2a2a44" opacity="0.6"/>
  <rect x="216" y="160" width="100" height="6" rx="2" fill="#2a2a44" opacity="0.4"/>
  <rect x="216" y="180" width="60" height="20" rx="4" fill="#4f46e5" opacity="0.6"/>
  <rect x="384" y="116" width="192" height="100" rx="8" fill="#1a1a2e"/>
  <rect x="396" y="130" width="80" height="8" rx="2" fill="#2a2a44"/>
  <rect x="396" y="146" width="120" height="6" rx="2" fill="#2a2a44" opacity="0.6"/>
  <rect x="396" y="160" width="100" height="6" rx="2" fill="#2a2a44" opacity="0.4"/>
  <rect x="396" y="180" width="60" height="20" rx="4" fill="#4f46e5" opacity="0.6"/>
  <!-- Bottom bar -->
  <rect x="24" y="232" width="552" height="8" rx="2" fill="#1e1e30"/>
  <rect x="24" y="248" width="400" height="8" rx="2" fill="#1e1e30" opacity="0.6"/>
  <rect x="24" y="264" width="480" height="8" rx="2" fill="#1e1e30" opacity="0.4"/>
  <!-- Gradient overlay -->
  <defs>
    <linearGradient id="grad" x1="0" y1="180" x2="600" y2="360" gradientUnits="userSpaceOnUse">
      <stop offset="0%" stop-color="#4f46e5" stop-opacity="0.05"/>
      <stop offset="100%" stop-color="#7c3aed" stop-opacity="0.1"/>
    </linearGradient>
  </defs>
  <rect width="600" height="360" fill="url(#grad)"/>
</svg>
